<svg width="211" height="104" viewBox="0 0 211 104" fill="none" xmlns="http://www.w3.org/2000/svg">
<g clip-path="url(#clip0_1602_338)" filter="url(#filter0_f_1602_338)">
<path d="M164.043 114.194C162.165 114.172 160.339 114.199 158.46 114.092C157.003 114.01 155.713 114.718 154.277 114.555C152.423 114.342 152.583 113.33 152.246 111.494C151.836 109.29 151.541 107.081 151.134 104.891C150.587 101.943 150.709 98.7552 151.506 95.858C153.073 90.1546 156.335 85.1871 160.556 81.063C168.443 73.3652 180.325 68.7123 191.285 68.1633C193.718 68.0369 197.224 67.7219 199.254 66.2017C200.688 65.131 202.279 62.5825 202.221 65.802C202.182 67.7043 201.184 69.0931 200.56 70.7681C199.932 72.4652 199.937 74.2879 199.839 76.1C199.76 77.8155 199.507 79.5185 199.317 81.2175C198.139 92.2731 189.119 100.874 180.641 107.046C175.665 110.678 170.414 114.251 164.043 114.194Z" fill="#78AF02"/>
<path opacity="0.42" d="M151.497 107.074C151.383 106.347 151.262 105.615 151.129 104.899C150.582 101.951 150.703 98.7634 151.5 95.8662C153.067 90.1628 156.329 85.1952 160.551 81.0712C168.443 73.3652 180.325 68.7123 191.285 68.1632C193.718 68.0369 197.224 67.7219 199.254 66.2017C200.688 65.131 202.279 62.5825 202.221 65.802C202.195 67.2496 201.602 68.4093 201.053 69.6116C199.007 71.6945 196.292 72.7104 193.964 74.6204C193.011 75.4054 192.168 76.243 191.136 76.9486C190.879 77.123 187.773 78.5237 187.824 78.364C188.524 76.3024 189.912 74.9309 191.51 73.5228C192.883 72.3119 195.561 70.6349 195.946 68.7435C192.058 66.9217 188.711 72.7945 186.429 74.761C187.193 72.8174 189.086 71.5798 189.987 69.7199C188.859 70.3705 187.11 69.8165 185.798 70.399C184.461 71.0004 183.685 72.0199 183.195 73.3984C182.407 75.5689 181.754 77.6149 181.438 79.7742C181.101 82.0662 181.873 84.5367 180.32 86.5257C178.683 85.0116 180.049 80.7794 180.485 79.0085C180.73 77.9961 183.139 70.3426 183.481 70.4116C176.989 69.1339 174.332 78.5183 174.337 83.0405C174.344 84.547 174.494 86.057 174.551 87.5619C174.58 88.3394 174.097 90.9803 174.455 91.5491C171.736 87.2744 172.56 81.2207 174.204 76.7315C174.581 75.6888 175.079 74.6462 175.123 73.5903C170.344 71.5591 169.153 78.467 168.9 81.4767C168.695 83.9465 167.984 86.4767 168.135 88.9632C168.24 90.7467 169.25 92.4071 169.487 94.1604C167.874 92.1753 167.323 89.0414 167.206 86.5418C167.074 83.5425 168.578 80.4205 168.07 77.4513C165.995 76.7177 163.034 81.1874 162.322 82.6911C160.939 85.6051 161.139 89.6407 161.126 92.7948C161.124 94.5758 161.935 96.2925 162.521 97.9485C162.867 98.9359 163.058 101.903 163.628 102.571C162.332 101.04 161.667 98.6444 161.226 96.7116C160.944 95.476 160.682 94.2298 160.54 92.9697C160.421 91.849 160.848 90.2304 160.566 89.2029C159.783 86.3827 157.759 88.1388 157.313 90.0121C156.348 94.1593 156.345 98.0654 157.148 102.182C156.752 100.133 155.823 98.4804 155.726 96.1783C155.638 93.882 156.449 91.7148 155.971 89.3649C153.371 89.5207 152.706 98.3967 152.55 100.205C152.374 102.303 152.695 104.336 153.346 106.318C153.693 107.356 154.88 109.164 155.179 110.497C155.259 110.871 155.274 111.199 155.176 111.46C155.078 111.721 152.154 108.28 151.926 107.839C151.787 107.583 151.641 107.322 151.497 107.074Z" fill="#A3CE24"/>
<path opacity="0.42" d="M151.5 95.8662C153.067 90.1628 156.329 85.1952 160.551 81.0712C168.443 73.3652 180.325 68.7123 191.285 68.1632C193.718 68.0368 197.224 67.7218 199.254 66.2017C200.688 65.131 202.279 62.5824 202.221 65.802C202.189 67.6239 201.27 68.9702 200.651 70.551C199.606 71.9193 198.434 73.0516 196.722 73.647C196.594 73.6912 196.451 73.7378 196.314 73.7762C193.37 74.6314 194.06 72.4281 193.333 70.6245C192.193 67.7738 189.493 71.0344 188.545 72.6657C187.764 74.0236 187.659 76.7344 186.223 77.511C184.62 75.3735 186.569 72.5753 187.244 70.3744C182.848 69.6255 181.773 76.6998 181.948 79.8998C182.144 83.7495 180.016 81.0006 179.324 78.9398C178.875 77.6116 178.768 76.4744 178.845 75.0752C178.899 74.075 179.302 72.6112 178.992 71.7467C177.047 73.9125 175.736 76.2179 174.968 79.1961C174.557 80.7402 174.094 82.8822 174.047 84.5345C174.01 85.9985 174.706 87.6709 173.935 88.9985C172.166 88.6992 171.647 84.1956 171.577 82.7791C171.402 79.371 172.045 76.867 172.999 73.6767C171.656 73.7119 170.14 75.5437 169.43 76.6091C168.409 78.1527 168.418 80.1254 168.144 81.9112C167.815 84.0009 167.469 86.2011 167.681 88.3034C167.812 89.5798 169.293 92.6078 168.695 93.6175C166.99 92.9481 165.773 89.8236 165.155 88.2307C164.054 85.3947 164.226 81.9253 165.338 79.1021C164.197 79.1448 162.697 81.8065 162.176 82.7597C159.509 87.6801 160.715 93.3122 162.412 98.4342C162.827 99.6895 163.786 101.143 161.689 100.443C160.544 100.055 159.833 98.9956 159.365 97.886C157.917 94.5509 158.929 90.7544 158.58 87.2978C157.836 88.9867 156.936 91.0547 156.79 92.9184C155.682 96.0496 157.612 99.7955 156.571 102.779C155.055 100.934 154.688 98.723 154.851 96.3826C154.953 94.8425 156.079 92.8352 155.684 91.3251C155.29 89.779 154.413 90.0554 153.612 91.3018C152.251 93.4007 152.914 96.515 152.479 98.8602C152.285 99.921 152.586 100.364 151.255 99.9442C151.126 99.9023 150.992 99.8326 150.869 99.7465C150.947 98.4333 151.155 97.1259 151.5 95.8662Z" fill="#A3CE24"/>
<path opacity="0.42" d="M156.873 92.6955C156.843 92.7725 156.828 92.8471 156.798 92.9241C156.8 92.974 156.782 93.0347 156.783 93.0846C156.839 92.9528 156.867 92.8258 156.873 92.6955Z" fill="#A3CE24"/>
<path d="M151.129 104.899C150.582 101.951 150.703 98.7634 151.5 95.8662C151.634 95.3617 151.812 94.8637 151.97 94.3763C151.84 94.9808 151.721 95.569 151.661 96.0892C151.34 98.7949 151.395 102.863 153.056 105.163C153.443 105.691 153.925 106.101 154.492 106.389C156.445 107.367 157.058 104.646 157.158 103.3C157.304 101.106 156.519 98.8462 156.211 96.689C155.845 94.0755 156.292 89.6388 158.022 86.8216C156.438 91.2429 155.583 101.976 161.128 103.298C161.39 103.36 161.714 103.281 161.807 102.992C162.614 100.151 161.404 97.5563 161.054 94.7101C160.712 91.9917 161.45 84.266 162.002 83.0776C161.541 87.2726 162.02 92.4078 163.93 95.7981C165.084 97.828 167.568 96.3573 168.168 94.6651C169.008 92.3349 167.742 89.7503 167.857 87.3033C167.977 84.518 168.23 81.7884 168.784 79.0632C168.923 78.3423 169.211 77.6527 169.466 76.9401C169.944 75.6141 170.602 74.2922 171.937 73.6769C170.158 75.6052 169.895 78.315 169.674 80.7734C169.442 83.4563 169.202 86.1334 170.697 88.5485C171.21 89.3845 172.721 91.9331 174.051 91.0459C175.214 90.274 174.738 86.7895 174.652 85.6057C174.44 83.0152 174.815 80.7379 175.232 78.2092C175.604 75.9541 176.348 74.2652 177.968 72.5802C176.332 75.5244 175.944 78.8666 176.238 82.1749C176.379 83.7511 177.377 87.2589 179.711 85.793C181.659 84.5816 181.03 81.2961 181.016 79.4176C180.973 76.6036 182.573 73.5725 183.882 71.1811C183.649 72.7514 182.91 74.224 182.892 75.8354C182.889 76.6759 182.857 78.4119 183.299 79.088C184.287 80.5869 184.783 78.8341 185.109 77.9511C186.025 75.4424 187.249 73.504 188.936 71.4626C190.309 69.7995 191.945 68.8944 193.977 68.2427C191.75 69.0508 190.73 70.8885 189.514 72.7467C188.622 74.1241 187.263 75.8707 188.249 77.5999C188.468 77.985 188.899 78.0672 188.995 78.4523C189.173 79.1389 188.572 79.7186 188.216 80.2263C187.883 80.7013 187.749 81.2058 187.455 81.6956C186.702 82.9264 185.161 82.86 184.017 83.4992C182.777 84.2054 181.818 85.3649 180.807 86.354C179.538 87.5894 178.253 88.8134 176.982 90.035C174.482 92.4347 171.951 94.8254 169.454 97.2391C166.099 100.457 162.697 103.604 159.173 106.629C156.684 108.768 155.3 110.289 154.391 113.364C154.304 113.645 154.197 114.059 154.05 114.53C152.481 114.26 152.585 113.258 152.264 111.52C151.831 109.299 151.535 107.089 151.129 104.899Z" fill="#6D9E02"/>
<path d="M157.103 106.045C158.551 104.031 160.269 102.207 161.867 100.311C165.39 96.1372 168.969 91.5877 173.239 88.1445C177.627 84.6014 181.888 81.0664 186.534 77.8512C190.888 74.8455 195.891 71.6968 199.431 67.7788C200.183 66.9502 200.863 65.7177 201.325 64.7103C201.378 64.6005 201.419 64.4711 201.459 64.3278C201.942 64.0921 202.249 64.3684 202.223 65.8159C202.184 67.7182 201.187 69.107 200.562 70.782C199.934 72.4791 199.939 74.3019 199.841 76.1139C199.763 77.8294 199.509 79.5324 199.32 81.2314C198.141 92.2871 189.121 100.888 180.644 107.06C175.66 110.686 170.408 114.259 164.043 114.194C162.165 114.172 160.339 114.199 158.46 114.092C157.003 114.01 155.713 114.718 154.277 114.554C153.508 114.467 153.094 114.238 152.842 113.866C153.905 111.131 155.262 108.602 157.103 106.045Z" fill="#61A304"/>
<path opacity="0.6" d="M199.428 67.765C200.18 66.9363 200.861 65.7038 201.323 64.6964C201.375 64.5866 201.417 64.4572 201.456 64.3139C201.939 64.0782 202.246 64.3545 202.221 65.8021C202.223 65.938 202.203 66.0708 202.189 66.1953C202.102 66.1461 202.003 66.1132 201.889 66.1189C201.319 66.1472 200.76 67.1718 200.467 67.5894C199.971 68.2797 199.37 68.7373 198.73 69.2662C196.484 71.1475 194.06 72.7583 191.808 74.6478C190.631 75.6302 186.056 77.9066 185.904 79.5344C185.776 81.0073 187.479 80.2841 188.597 79.9439C189.885 79.5522 190.584 78.8334 191.73 78.2442C192.962 77.6182 194.319 77.2503 195.464 76.4531C196.832 75.4945 197.844 74.4334 199.043 73.3322C198.338 75.2799 195.484 76.7726 193.8 77.8513C191.426 79.3746 189.027 80.5143 186.333 81.2394C184.142 81.8403 182.306 82.2636 180.613 83.8609C180.329 84.1262 179.584 84.5444 179.832 84.9746C180.179 85.5598 181.486 85.1935 182.037 85.2618C183.151 85.4321 184.166 85.6915 185.327 85.7241C187.362 85.7827 189.441 85.5176 191.473 85.4402C193.234 85.3675 195.246 84.8484 196.782 83.9465C193.202 86.0409 189.7 87.1161 185.504 86.813C184.158 86.7123 182.754 86.8516 181.418 86.6845C180.052 86.5084 178.654 86.3593 177.366 86.9951C176.165 87.594 175.096 88.701 174.07 89.6065C172.652 90.8468 173.257 91.4296 174.873 91.8418C177.633 92.5553 180.446 92.2186 183.189 92.7126C185.695 93.1622 188.556 92.2856 191.054 91.9971C193.09 91.7754 194.849 91.1645 196.461 90.3282C196.429 90.3912 196.397 90.4543 196.365 90.5173C196.328 90.5886 196.29 90.6598 196.238 90.7335C193.056 93.4614 188.57 93.7119 184.442 94.2871C183.998 94.2934 183.546 94.2939 183.094 94.2945C180.357 94.2445 177.577 94.152 174.834 94.3183C172.923 94.4319 170.909 94.2046 169.708 95.9882C169.265 96.6548 168.783 97.6729 169.389 98.3417C169.673 98.6507 170.287 98.8731 170.669 99.0068C174.249 100.258 178.292 99.892 182.017 100.048C184.353 100.147 186.722 100.147 189.074 99.9629C189.056 99.9875 189.031 100.006 189.005 100.025C189 100.033 188.994 100.042 188.98 100.044C186.646 101.51 183.803 101.471 181.14 101.595C179.765 101.657 178.274 101.834 176.895 101.71C175.627 101.603 174.369 101.551 173.103 101.458C171.234 101.32 169.494 101.102 167.623 101.158C165.172 101.223 161.251 101.956 160.826 104.967C160.547 106.933 164.053 107.924 165.409 108.411C168.499 109.526 172.36 109.314 175.615 109.165C176.348 109.129 177.079 109.08 177.807 109.016C177.486 109.231 177.159 109.453 176.843 109.66C176.071 110.169 174.56 110.147 173.648 110.351C172.376 110.632 170.966 110.205 169.649 110.149C167.066 110.037 163.81 109.891 161.406 108.878C160.359 108.438 156.719 107.254 157.251 109.702C157.8 112.212 161.337 113.629 163.811 114.141C162.013 114.127 160.243 114.144 158.431 114.047C156.974 113.965 155.684 114.673 154.248 114.509C153.478 114.422 153.065 114.193 152.813 113.821C153.754 111.416 154.932 109.177 156.441 106.937C158.038 104.832 159.701 102.774 161.407 100.758C161.549 100.589 161.692 100.421 161.835 100.252C162.031 100.023 162.22 99.7892 162.417 99.5608C163.067 98.8075 163.714 98.0402 164.373 97.2926C166.756 94.5545 169.168 91.6534 171.896 89.2063C172.324 88.8223 172.76 88.4441 173.207 88.0855C177.595 84.5424 181.856 81.0075 186.503 77.7922C189.012 76.0585 191.799 74.3119 194.31 72.2981C196.187 70.9269 197.939 69.4198 199.428 67.765Z" fill="#468E02"/>
<path opacity="0.31" d="M159.715 110.245C160.714 109.309 165.044 110.622 166.227 110.816C170.845 111.598 174.7 111.394 178.259 107.953C179.338 106.902 180.025 105.991 178.343 105.289C176.236 104.41 171.365 104.966 169.12 105.138C168.036 105.221 161.933 106.036 163.227 103.475C163.919 102.104 167.61 102.309 168.861 102.197C171.76 101.945 174.551 101.849 177.473 102.262C179.263 102.514 182.325 103.598 184.056 102.992C186.188 102.251 189.049 97.3324 185.149 97.2859C182.357 97.2458 179.616 97.34 176.821 97.1639C175.871 97.1084 170.006 97.1132 171.152 95.6696C171.938 94.6698 175.464 94.9184 176.646 94.7823C179.667 94.4449 182.965 94.1306 185.997 94.265C187.892 94.3481 190.996 94.7284 191.928 92.4752C192.634 90.7716 191.013 90.4176 189.749 90.1662C186.573 89.5401 181.879 90.9398 179.04 89.0843C176.767 87.5887 179.816 87.3324 181.275 87.1333C183.356 86.8462 185.458 86.8785 187.56 86.8249C189.273 86.7677 194.031 86.8786 193.788 84.107C192.178 83.7726 187.226 85.3329 186.46 83.0623C186.009 81.7202 189.182 81.636 189.94 81.3734C192.244 80.5949 197.058 78.4128 197.512 75.7268C195.003 74.2368 192.299 79.2784 189.688 78.0218C190.544 76.0332 192.428 74.826 194.059 73.5268C195.552 72.3381 197.044 70.6612 198.28 68.9505C198.678 68.5575 199.061 68.167 199.434 67.7568C200.186 66.9282 200.867 65.6956 201.328 64.6882C201.381 64.5785 201.423 64.4491 201.462 64.3057C201.945 64.0701 202.252 64.3463 202.226 65.7939C202.188 67.6961 201.19 69.085 200.565 70.7599C199.938 72.457 199.942 74.2798 199.845 76.0919C199.766 77.8073 199.513 79.5103 199.323 81.2093C198.144 92.265 189.125 100.866 180.647 107.038C176.459 110.086 172.083 113.089 167.012 113.93C166.36 113.779 165.83 113.334 165.571 112.31C164.445 112.888 158.127 111.745 159.715 110.245Z" fill="#A3CE24"/>
<path d="M194.63 72.1196C194.788 71.9985 194.947 71.8773 195.097 71.7504C193.554 73.7951 190.547 75.6809 188.609 77.156C187.008 78.3782 184.037 79.4464 182.842 81.0637C184.592 81.4235 187.442 80.3192 189.085 79.578C187.34 81.0049 185.249 81.6025 183.097 82.146C181.085 82.6651 178.83 83.234 177.932 85.3159C179.39 86.7037 182.218 85.9263 184.014 86.3787C181.264 87.1136 177.276 86.4436 176.198 86.7625C174.662 87.2122 171.17 91.4448 170.735 93.0936C171.672 93.3596 172.883 92.8163 173.886 92.762C174.916 92.7028 175.967 92.8771 176.983 92.7343C174.768 93.6121 172.789 93.6298 170.52 94.079C168.126 94.5503 166.357 96.5343 164.933 98.3571C167.641 100.609 171.981 99.2787 174.904 100.875C173.244 101.727 170.517 100.879 168.733 100.776C166.827 100.673 164.94 100.56 163.107 101.363C161.694 101.985 159.878 103.252 159.938 104.979C159.99 106.787 162.709 108.448 164.193 109.048C162.061 108.971 159.491 106.436 157.346 107.51C155.637 108.364 155.417 110.053 156.315 111.647C157.127 113.084 158.637 113.544 160.072 114.11C159.531 114.097 158.985 114.093 158.433 114.06C156.976 113.979 155.686 114.687 154.25 114.523C153.481 114.436 153.067 114.207 152.815 113.835C153.449 112.216 154.204 110.669 155.072 109.152C158.243 105.342 161.143 101.257 164.271 97.3679C167.031 94.0754 169.915 90.7608 173.218 88.1051C177.606 84.562 181.866 81.0271 186.513 77.8118C189.003 76.0888 191.699 74.3151 194.224 72.3848C194.379 72.3218 194.511 72.2195 194.63 72.1196Z" fill="#4A8209"/>
<path opacity="0.24" d="M166.516 77.9256C164.541 79.0198 162.676 80.3385 160.993 82.0776C156.124 87.0909 150.785 98.0884 155.129 104.906C157.454 103.959 159.11 97.8663 160.42 95.7191C163.777 90.2322 168.763 85.8014 173.836 81.9081C178.644 78.2194 187.223 76.4164 189.449 70.1735C186.475 68.004 182.169 70.9082 179.559 72.1929C175.179 74.3129 170.617 75.6465 166.516 77.9256Z" fill="#CCEA86"/>
<path opacity="0.2" d="M190.698 93.8114C190.696 93.6755 190.712 93.5649 190.729 93.4543C190.718 93.4346 190.716 93.4207 190.705 93.401C190.674 93.5501 190.668 93.6804 190.698 93.8114Z" fill="#CCEA86"/>
<path opacity="0.2" d="M187.14 99.6209C187.609 98.6553 187.539 97.605 188.594 96.9527C189.261 96.541 190.125 96.7553 190.679 96.0691C191.25 95.3584 191.143 94.1352 190.729 93.4542C190.929 92.5072 192.014 92.5964 192.602 91.8971C193.072 91.3476 193.095 90.3744 193.52 89.7684C194.463 88.4394 196.574 88.2333 197.378 86.9287C198.229 85.5226 196.999 84.0375 197.137 82.7423C197.264 81.5856 198.395 81.035 198.615 79.9193C198.886 78.5579 197.684 77.8502 197.88 76.7173C198.179 74.9488 198.942 73.5295 198.976 71.6854C198.997 70.5762 198.811 69.6397 198.505 68.7171C198.823 68.4027 199.141 68.0883 199.434 67.7566C200.186 66.928 200.867 65.6955 201.328 64.6881C201.381 64.5783 201.423 64.4489 201.462 64.3056C201.945 64.0699 202.252 64.3462 202.226 65.7937C202.188 67.696 201.19 69.0848 200.565 70.7598C199.938 72.4569 199.942 74.2797 199.845 76.0917C199.766 77.8072 199.513 79.5102 199.323 81.2092C198.144 92.2649 189.125 100.866 180.647 107.038C180.387 107.234 180.125 107.417 179.857 107.607C181.771 106.043 183.424 104.173 185.035 102.31C185.79 101.459 186.656 100.625 187.14 99.6209Z" fill="#CCEA86"/>
<path opacity="0.25" d="M165.322 80.3613C164.371 81.1603 163.701 82.0824 162.816 82.9273C161.893 83.8075 160.48 83.9771 159.729 85.0138C159.124 85.8597 159.081 87.1237 158.751 88.0648C158.273 89.3909 157.524 90.5996 157.035 91.9421C156.564 93.2239 156.104 94.4893 155.768 95.8048C155.582 96.5412 154.82 97.9245 154.87 98.6552C154.911 99.2582 154.956 99.595 155.769 99.6888C157.421 99.8938 158.358 97.5464 158.764 96.4267C159.515 94.3275 159.537 91.9616 160.903 90.1346C161.988 88.6729 163.579 87.6752 165.066 86.7028C167.1 85.3687 169.252 83.9707 171.206 82.507C173.047 81.1351 174.004 79.3513 176.116 78.2548C177.071 77.7638 177.649 77.2169 178.447 76.689C179.34 76.0939 188.869 72.3072 187.517 71.0301C186.413 69.9751 181.179 72.9991 179.909 73.4882C177.106 74.577 174.336 76.177 171.434 76.9028C169.068 77.4913 167.181 78.8067 165.322 80.3613Z" fill="#CCEA86"/>
</g>
<path d="M64.7203 40.8524C64.685 42.3989 64.6901 43.9033 64.5839 45.4496C64.5035 46.6493 65.0746 47.7184 64.9262 48.8997C64.7339 50.4247 63.9021 50.2839 62.3865 50.5446C60.5673 50.8611 58.7444 51.0837 56.9367 51.3983C54.5033 51.8215 51.8788 51.6917 49.4998 51.0081C44.8165 49.664 40.755 46.9309 37.3974 43.4152C31.1301 36.8473 27.4082 27.0163 27.0582 17.9832C26.9767 15.9778 26.75 13.0872 25.5167 11.4008C24.6481 10.2094 22.5637 8.87523 25.2152 8.95336C26.7817 9.00305 27.9164 9.83791 29.2903 10.3679C30.6823 10.9007 32.1838 10.9139 33.6756 11.0113C35.0878 11.0922 36.4883 11.3167 37.886 11.4886C46.9817 12.5626 53.9822 20.0726 58.9872 27.1133C61.9325 31.2457 64.8266 35.605 64.7203 40.8524Z" fill="#78AF02"/>
<path opacity="0.42" d="M58.7388 51.1202C58.1391 51.2069 57.5346 51.3002 56.9435 51.4032C54.5102 51.8264 51.8857 51.6967 49.5067 51.013C44.8233 49.6689 40.7619 46.9358 37.4043 43.4201C31.1303 36.8474 27.4084 27.0164 27.0584 17.9834C26.9769 15.9779 26.7502 13.0873 25.5169 11.4009C24.6483 10.2095 22.5639 8.87536 25.2154 8.95348C26.4075 8.98792 27.3572 9.48718 28.3425 9.95109C30.0391 11.6558 30.8506 13.9015 32.4021 15.8366C33.0399 16.6291 33.722 17.3317 34.2936 18.1882C34.4348 18.4012 35.5596 20.9731 35.4285 20.9297C33.7369 20.3339 32.6202 19.1773 31.4752 17.8483C30.4906 16.7054 29.1342 14.4844 27.5798 14.1494C26.0429 17.3355 30.8492 20.147 32.4477 22.0449C30.8539 21.3976 29.8521 19.8267 28.3284 19.0675C28.8539 20.0024 28.3812 21.4377 28.8488 22.5238C29.3317 23.631 30.1643 24.2794 31.2952 24.6957C33.0757 25.3655 34.755 25.9221 36.5307 26.203C38.4155 26.5015 40.4576 25.8887 42.0815 27.1863C40.8191 28.5211 37.3457 27.356 35.891 26.981C35.0594 26.7693 28.7776 24.7137 28.8376 24.4323C27.7246 29.7683 35.4299 32.0447 39.1549 32.0823C40.396 32.091 41.6411 31.981 42.8813 31.9485C43.522 31.9318 45.6928 32.3545 46.1647 32.0645C42.6182 34.2643 37.6394 33.5295 33.9569 32.1331C33.1015 31.8132 32.2474 31.3927 31.378 31.3466C29.6603 35.2649 35.3393 36.3097 37.8161 36.5464C39.8486 36.7379 41.9262 37.3471 43.9757 37.2467C45.4458 37.1764 46.8229 36.36 48.2693 36.1815C46.6191 37.4914 44.0325 37.9162 41.9725 37.9888C39.5007 38.0701 36.9431 36.8019 34.4926 37.1925C33.869 38.8946 37.5231 41.3759 38.7551 41.9763C41.1425 43.1426 44.4686 43.0155 47.0665 43.0552C48.5335 43.074 49.9552 42.4214 51.3247 41.9545C52.1413 41.6787 54.5873 41.5486 55.1429 41.0855C53.8696 42.1387 51.8899 42.6645 50.2937 43.0093C49.2733 43.23 48.2444 43.4344 47.2051 43.5401C46.2808 43.627 44.9516 43.2609 44.1026 43.4829C41.7722 44.1018 43.1998 45.7858 44.7388 46.1705C48.1459 47.0041 51.3634 47.0424 54.7615 46.4194C53.0706 46.7266 51.7004 47.477 49.8032 47.5347C47.9108 47.5858 46.1332 46.8978 44.1932 47.2695C44.2973 49.4129 51.6023 50.0432 53.0901 50.1884C54.8173 50.3534 56.4946 50.1075 58.1334 49.5904C58.9911 49.3138 60.492 48.353 61.5929 48.1191C61.9014 48.0567 62.1715 48.0477 62.3858 48.1306C62.6001 48.2134 59.7379 50.5901 59.3726 50.7741C59.1607 50.8856 58.944 51.0039 58.7388 51.1202Z" fill="#A3CE24"/>
<path opacity="0.42" d="M49.5067 51.013C44.8233 49.6689 40.7619 46.9358 37.4043 43.4201C31.1303 36.8474 27.4084 27.0164 27.0584 17.9833C26.9769 15.9779 26.7502 13.0873 25.5169 11.4009C24.6483 10.2095 22.5639 8.87534 25.2153 8.95346C26.7158 8.99629 27.8162 9.76596 29.1125 10.2909C30.2299 11.1641 31.1517 12.1401 31.6262 13.5557C31.6613 13.662 31.6984 13.7799 31.7288 13.893C32.4058 16.326 30.5973 15.7375 29.1049 16.3191C26.746 17.2318 29.4067 19.4866 30.7416 20.2827C31.8528 20.9384 34.0847 21.05 34.711 22.2399C32.9354 23.5409 30.6487 21.9095 28.8421 21.3325C28.1842 24.9469 34.0014 25.8982 36.6389 25.7838C39.8118 25.6583 37.5276 27.3852 35.8237 27.9365C34.7254 28.294 33.7877 28.3712 32.6359 28.2947C31.8125 28.2411 30.6105 27.8954 29.8956 28.1427C31.6614 29.7652 33.5481 30.8662 35.9942 31.527C37.2622 31.8796 39.0223 32.2811 40.3829 32.3351C41.5884 32.3792 42.9726 31.8213 44.0589 32.4693C43.7959 33.9233 40.0814 34.309 38.9139 34.3532C36.105 34.4662 34.0484 33.9126 31.4294 33.0972C31.4459 34.2042 32.9406 35.4699 33.8115 36.0647C35.0736 36.92 36.6986 36.9306 38.167 37.1735C39.8852 37.4639 41.6944 37.7689 43.428 37.614C44.4807 37.5179 46.9886 36.3268 47.8148 36.8287C47.2474 38.2264 44.6624 39.1999 43.3446 39.6938C40.9982 40.5749 38.1421 40.4006 35.8269 39.4585C35.8515 40.3989 38.0299 41.6586 38.8103 42.0971C42.8384 44.3398 47.4889 43.399 51.7238 42.0483C52.7617 41.7185 53.9682 40.9419 53.3714 42.6632C53.0416 43.6028 52.1621 44.1781 51.2438 44.5533C48.4832 45.715 45.3653 44.8457 42.5149 45.1013C43.899 45.7299 45.5941 46.4905 47.1279 46.6282C49.6968 47.5699 52.8003 46.0154 55.2478 46.9003C53.7146 48.132 51.8897 48.414 49.9633 48.2581C48.6957 48.1593 47.0528 47.2131 45.8052 47.5242C44.528 47.8344 44.7475 48.5598 45.7667 49.2306C47.4829 50.3714 50.0543 49.8546 51.9821 50.2346C52.854 50.4043 53.2214 50.1609 52.8635 51.2527C52.8278 51.3589 52.7692 51.4689 52.6971 51.5693C51.6161 51.493 50.5412 51.3095 49.5067 51.013Z" fill="#A3CE24"/>
<path opacity="0.42" d="M46.9452 46.5578C47.0083 46.5829 47.0695 46.5964 47.1327 46.6215C47.1739 46.6206 47.2236 46.6361 47.2648 46.6352C47.1567 46.588 47.0524 46.5638 46.9452 46.5578Z" fill="#A3CE24"/>
<path d="M56.9436 51.403C54.5102 51.8262 51.8857 51.6965 49.5067 51.0128C49.0924 50.8979 48.6838 50.7466 48.2839 50.6115C48.7806 50.7248 49.2639 50.8284 49.6919 50.8821C51.9176 51.1718 55.2693 51.1644 57.1791 49.8178C57.6175 49.5037 57.9603 49.111 58.2027 48.6462C59.0262 47.047 56.7905 46.5169 55.6827 46.4214C53.877 46.2811 52.0082 46.9068 50.2284 47.14C48.0722 47.4174 44.4218 47.0075 42.1174 45.556C45.7445 46.9024 54.5775 47.7067 55.7183 43.1512C55.7715 42.9359 55.7099 42.6686 55.4726 42.5895C53.1395 41.8983 50.9912 42.8709 48.6435 43.1325C46.4011 43.3886 40.0442 42.7089 39.0705 42.2431C42.5217 42.6621 46.7561 42.315 49.5665 40.7732C51.2493 39.8416 50.061 37.7818 48.6728 37.272C46.7611 36.5588 44.6204 37.5774 42.6058 37.4596C40.3127 37.3345 38.0667 37.1012 35.827 36.619C35.2345 36.4979 34.6691 36.2543 34.0846 36.0374C32.9967 35.6317 31.914 35.0775 31.4196 33.9722C32.9914 35.4555 35.2211 35.6973 37.244 35.9022C39.4518 36.1182 41.6547 36.3408 43.658 35.1322C44.3514 34.7173 46.4649 33.4966 45.7464 32.3927C45.1215 31.4269 42.2468 31.7868 41.2709 31.8467C39.135 31.9968 37.2627 31.6668 35.1837 31.2998C33.3296 30.9727 31.9454 30.3441 30.5725 28.9935C32.9824 30.3686 35.7318 30.7199 38.4596 30.508C39.7593 30.4067 42.658 29.6179 41.4723 27.6816C40.4927 26.0657 37.7805 26.5524 36.233 26.5468C33.9146 26.5557 31.4328 25.2101 29.4752 24.109C30.7665 24.316 31.9726 24.9385 33.2998 24.9684C33.9921 24.9787 35.4217 25.0214 35.9828 24.6636C37.2267 23.8631 35.7875 23.4383 35.0632 23.1618C33.0052 22.3841 31.4199 21.3576 29.7542 19.9488C28.3971 18.8022 27.6668 17.4464 27.1489 15.7665C27.7938 17.6085 29.2981 18.4654 30.8173 19.485C31.9436 20.2327 33.3696 21.368 34.8031 20.5718C35.1224 20.3954 35.1942 20.0412 35.5123 19.9654C36.0795 19.825 36.5514 20.326 36.9663 20.6238C37.3544 20.9025 37.7688 21.0174 38.1694 21.2645C39.1763 21.896 39.1072 23.1647 39.623 24.113C40.1932 25.1409 41.1393 25.9418 41.9446 26.7835C42.9505 27.8403 43.9467 28.9104 44.9411 29.969C46.8944 32.0507 48.8401 34.1573 50.8049 36.2371C53.4241 39.03 55.9847 41.8619 58.4436 44.7933C60.1825 46.863 61.4227 48.017 63.947 48.7948C64.1776 48.8691 64.5174 48.9609 64.904 49.0863C64.6672 50.3766 63.843 50.2818 62.4079 50.5292C60.5742 50.8658 58.7513 51.0884 56.9436 51.403Z" fill="#6D9E02"/>
<path d="M57.9435 46.4929C56.2983 45.2814 54.8117 43.8491 53.2645 42.5153C49.8595 39.574 46.1453 36.5832 43.3489 33.0344C40.4713 29.3867 37.5993 25.8444 34.9942 21.9866C32.5589 18.3726 30.012 14.222 26.8177 11.2697C26.1421 10.6428 25.1332 10.0706 24.3077 9.68084C24.2178 9.63657 24.1116 9.60089 23.9939 9.56709C23.8043 9.16732 24.0347 8.91697 25.2269 8.95141C26.7934 9.0011 27.9281 9.83596 29.302 10.3659C30.694 10.8988 32.1955 10.9119 33.6872 11.0093C35.0995 11.0902 36.5 11.3148 37.8977 11.4866C46.9934 12.5607 53.9939 20.0706 58.9989 27.1114C61.9394 31.2505 64.8335 35.6097 64.7205 40.8523C64.6852 42.3988 64.6903 43.9032 64.5841 45.4495C64.5037 46.6492 65.0748 47.7183 64.9264 48.8996C64.8473 49.5324 64.655 49.871 64.3462 50.0752C62.1027 49.1745 60.0322 48.0329 57.9435 46.4929Z" fill="#61A304"/>
<path opacity="0.6" d="M26.8062 11.2718C26.1306 10.6449 25.1217 10.0727 24.2962 9.68291C24.2063 9.63865 24.1001 9.60296 23.9824 9.56916C23.7928 9.16939 24.0232 8.91904 25.2153 8.95348C25.3274 8.95279 25.4365 8.97028 25.5389 8.98298C25.4976 9.0547 25.4696 9.13603 25.4732 9.22989C25.4913 9.69916 26.33 10.1694 26.6713 10.4144C27.2353 10.8295 27.6066 11.3293 28.0362 11.8608C29.5649 13.7289 30.8692 15.7401 32.4046 17.613C33.2028 18.5917 35.0353 22.3815 36.3747 22.5216C37.5867 22.6413 37.0069 21.2313 36.7371 20.3075C36.4265 19.2429 35.8409 18.6602 35.3663 17.711C34.8621 16.69 34.5717 15.5689 33.9257 14.6183C33.1489 13.4827 32.2843 12.6389 31.3884 11.6408C32.9862 12.2403 34.1891 14.6046 35.062 16.0019C36.2945 17.9718 37.211 19.9581 37.7832 22.184C38.2577 23.995 38.5892 25.5108 39.8892 26.9206C40.1051 27.1567 40.4426 27.7742 40.7993 27.5739C41.2845 27.2936 40.995 26.2136 41.0564 25.7608C41.207 24.8448 41.4302 24.0112 41.4679 23.0546C41.5351 21.379 41.3362 19.6644 41.2913 17.9894C41.2478 16.5385 40.839 14.8761 40.1105 13.6027C41.8022 16.5714 42.6553 19.4655 42.3665 22.9189C42.2709 24.0266 42.3726 25.1846 42.2225 26.2836C42.0647 27.4074 41.9288 28.5572 42.4405 29.6243C42.9227 30.6194 43.8246 31.5102 44.5609 32.3633C45.5693 33.5435 46.055 33.0506 46.4096 31.7232C47.0231 29.4561 46.772 27.1361 47.2044 24.881C47.5981 22.8212 46.9028 20.4562 46.6884 18.3958C46.5248 16.7167 46.038 15.2619 45.3641 13.9264C45.4157 13.9533 45.4674 13.9802 45.519 14.0072C45.5774 14.0389 45.6357 14.0707 45.6959 14.1139C47.9132 16.7603 48.0778 20.458 48.513 23.8633C48.5141 24.2291 48.5103 24.6016 48.5066 24.9741C48.4399 27.2282 48.3378 29.5176 48.4492 31.7778C48.525 33.3533 48.319 35.0104 49.7769 36.0165C50.3219 36.3874 51.156 36.7935 51.7126 36.3007C51.9697 36.0696 52.1586 35.5663 52.2724 35.2525C53.3366 32.3152 53.0725 28.9821 53.2359 25.9152C53.3391 23.9916 53.361 22.0401 53.2315 20.1016C53.2516 20.116 53.2669 20.1371 53.2821 20.1582C53.2888 20.163 53.2955 20.1678 53.2974 20.1793C54.4831 22.1155 54.4249 24.4567 54.502 26.6518C54.5405 27.7847 54.6717 29.0146 54.5569 30.1491C54.4568 31.1927 54.4026 32.2287 54.3139 33.2703C54.1829 34.8089 53.987 36.2401 54.0159 37.7819C54.0465 39.8016 54.6134 43.0377 57.0899 43.4161C58.7067 43.6642 59.5562 40.7857 59.9697 39.673C60.917 37.1385 60.7781 33.956 60.6858 31.2735C60.6633 30.6692 60.6293 30.0668 60.5838 29.4663C60.7575 29.7329 60.9378 30.0043 61.1048 30.2662C61.517 30.9068 61.4853 32.1517 61.6444 32.9047C61.864 33.9548 61.4993 35.1126 61.4412 36.1965C61.3241 38.3231 61.1741 41.004 60.3171 42.9747C59.9445 43.8328 58.9357 46.82 60.9573 46.4054C63.0296 45.9765 64.2297 43.0759 64.675 41.043C64.6466 42.5234 64.6441 43.9818 64.5467 45.4736C64.4663 46.6733 65.0373 47.7424 64.889 48.9237C64.8099 49.5565 64.6176 49.895 64.3087 50.0992C62.336 49.3016 60.5027 48.31 58.6718 47.0464C56.9532 45.7112 55.273 44.3225 53.6284 42.8984C53.4908 42.7794 53.3531 42.6603 53.2155 42.5412C53.0292 42.377 52.838 42.2195 52.6517 42.0553C52.0372 41.5128 51.4113 40.9722 50.8016 40.423C48.5684 38.4345 46.2012 36.4207 44.2109 34.1503C43.8987 33.7943 43.5912 33.4316 43.3 33.0603C40.4224 29.4126 37.5503 25.8703 34.9452 22.0126C33.5406 19.9293 32.1278 17.6171 30.4924 15.5305C29.3805 13.9717 28.1554 12.5142 26.8062 11.2718Z" fill="#468E02"/>
<path opacity="0.31" d="M61.4275 44.3802C60.6653 43.5491 61.7875 39.9942 61.9583 39.0217C62.6453 35.2254 62.5131 32.0478 59.7124 29.084C58.8565 28.1857 58.1129 27.6112 57.5187 28.9897C56.7754 30.7174 57.1872 34.7346 57.3082 36.586C57.3664 37.4796 57.9807 42.5142 55.8833 41.4243C54.7604 40.8413 54.964 37.8033 54.8831 36.7717C54.703 34.3811 54.6501 32.0818 55.0168 29.6781C55.2415 28.2067 56.1629 25.6943 55.6799 24.2624C55.0894 22.5 51.0645 20.0973 50.9898 23.309C50.9308 25.609 50.9828 27.8672 50.8117 30.1679C50.7572 30.9502 50.7064 35.7812 49.528 34.8237C48.7117 34.1667 48.9494 31.2648 48.8483 30.2897C48.5986 27.7983 48.3704 25.0791 48.5094 22.583C48.5955 21.0223 48.9377 18.4691 47.0904 17.6805C45.6937 17.0834 45.387 18.4147 45.1681 19.4542C44.6228 22.0643 45.732 25.9433 44.1771 28.2647C42.924 30.1233 42.7413 27.6092 42.5909 26.4061C42.3738 24.6885 42.4201 22.9573 42.3954 21.2259C42.3643 19.8143 42.5 15.896 40.2148 16.0706C39.9243 17.3934 41.1633 21.4872 39.2859 22.0966C38.1762 22.4559 38.1364 19.8416 37.9272 19.2148C37.3074 17.3096 35.5549 13.3237 33.3466 12.9248C32.0959 14.9779 36.2235 17.2515 35.1641 19.3911C33.534 18.6671 32.5572 17.1039 31.5022 15.7483C30.537 14.5078 29.1696 13.2625 27.7721 12.2288C27.4521 11.8977 27.1339 11.578 26.7995 11.267C26.124 10.6401 25.1151 10.0679 24.2896 9.67809C24.1997 9.63382 24.0934 9.59814 23.9757 9.56434C23.7861 9.16457 24.0165 8.91422 25.2087 8.94865C26.7752 8.99834 27.9099 9.8332 29.2838 10.3632C30.6759 10.896 32.1774 10.9092 33.6691 11.0066C35.0814 11.0875 36.4818 11.312 37.8795 11.4839C46.9752 12.5579 53.9757 20.0679 58.9807 27.1086C61.4526 30.5868 63.885 34.2191 64.531 38.4044C64.4004 38.9394 64.0288 39.3723 63.1828 39.5762C63.6488 40.5091 62.6482 45.7027 61.4275 44.3802Z" fill="#A3CE24"/>
<path d="M30.3485 15.2647C30.2502 15.1333 30.1518 15.0019 30.0487 14.8771C31.7186 16.1672 33.2439 18.6616 34.4409 20.2713C35.4327 21.6018 36.2849 24.0592 37.6059 25.0582C37.9187 23.6197 37.0356 21.2619 36.4403 19.9016C37.5994 21.3523 38.0722 23.0809 38.4999 24.8583C38.9086 26.5207 39.3562 28.3834 41.0628 29.142C42.2195 27.9545 41.6055 25.6174 41.9949 24.1427C42.5746 26.4145 41.9856 29.6929 42.2382 30.5841C42.5943 31.8538 46.0481 34.7693 47.4023 35.1431C47.6301 34.3738 47.1939 33.3711 47.1585 32.5446C47.1193 31.6951 47.2727 30.8317 47.1646 29.9935C47.8669 31.8261 47.8631 33.456 48.212 35.3289C48.5779 37.3054 50.1956 38.781 51.6838 39.9711C53.564 37.7615 52.5086 34.1747 53.8512 31.7819C54.5374 33.1568 53.8129 35.3949 53.7117 36.8636C53.6093 38.4329 53.4984 39.9859 54.1431 41.5033C54.6421 42.6728 55.6689 44.1806 57.092 44.1476C58.5811 44.1215 59.975 41.8974 60.4835 40.6805C60.3998 42.4356 58.2881 44.5297 59.1524 46.3062C59.8395 47.7222 61.2295 47.9189 62.5508 47.1943C63.7417 46.5383 64.1344 45.2991 64.6141 44.1224C64.5987 44.5677 64.5899 45.0177 64.5582 45.4715C64.4778 46.6712 65.0489 47.7403 64.9005 48.9217C64.8214 49.5545 64.6291 49.893 64.3203 50.0972C62.9924 49.5597 61.7251 48.9237 60.4838 48.1949C57.375 45.5474 54.0368 43.1205 50.8628 40.5073C48.1764 38.2036 45.473 35.7964 43.3163 33.0516C40.4388 29.4039 37.5667 25.8616 34.9616 22.0039C33.5655 19.9369 32.1296 17.6994 30.5632 15.6014C30.5127 15.4739 30.4297 15.3636 30.3485 15.2647Z" fill="#4A8209"/>
<path opacity="0.24" d="M34.8688 38.4764C35.7516 40.1141 36.8205 41.6623 38.2373 43.0647C42.3214 47.1222 51.3305 51.6224 56.9868 48.108C56.2282 46.1843 51.2252 44.7628 49.4687 43.664C44.9803 40.8476 41.3771 36.6993 38.2174 32.484C35.2239 28.4894 33.8186 21.4064 28.697 19.5145C26.8823 21.9434 29.2344 25.518 30.2682 27.6799C31.9737 31.3076 33.0296 35.0773 34.8688 38.4764Z" fill="#CCEA86"/>
<path opacity="0.2" d="M48.1796 18.7057C48.0676 18.7064 47.9767 18.6918 47.8857 18.6772C47.8694 18.6858 47.8579 18.6877 47.8416 18.6963C47.9641 18.7234 48.0714 18.7294 48.1796 18.7057Z" fill="#CCEA86"/>
<path opacity="0.2" d="M52.9319 21.6915C52.1409 21.296 51.2751 21.3437 50.7476 20.4682C50.4147 19.9148 50.5993 19.2057 50.0393 18.7428C49.4591 18.2655 48.4506 18.3426 47.8857 18.6773C47.1076 18.5041 47.1911 17.6108 46.6206 17.1201C46.1724 16.7274 45.371 16.6996 44.8758 16.3442C43.7898 15.5544 43.6398 13.8141 42.5727 13.1393C41.4224 12.4251 40.1875 13.4247 39.122 13.2987C38.1704 13.1834 37.7274 12.2468 36.8104 12.055C35.6915 11.8196 35.0974 12.8026 34.1661 12.6309C32.7121 12.368 31.5501 11.7265 30.0314 11.6807C29.1179 11.6537 28.3448 11.7983 27.582 12.0417C27.326 11.7768 27.0699 11.5119 26.7995 11.267C26.124 10.6401 25.1151 10.0679 24.2896 9.67813C24.1997 9.63386 24.0935 9.59818 23.9757 9.56438C23.7861 9.16461 24.0166 8.91426 25.2087 8.9487C26.7752 8.99839 27.9099 9.83324 29.2838 10.3632C30.6759 10.8961 32.1774 10.9092 33.6691 11.0066C35.0814 11.0875 36.4818 11.3121 37.8795 11.4839C46.9752 12.558 53.9757 20.0679 58.9807 27.1087C59.1401 27.3245 59.288 27.5422 59.4426 27.7648C58.1718 26.1731 56.6468 24.7943 55.1274 23.4501C54.4336 22.8202 53.7545 22.0994 52.9319 21.6915Z" fill="#CCEA86"/>
<path opacity="0.25" d="M36.864 39.4829C37.5133 40.2736 38.2665 40.8346 38.9543 41.5717C39.6706 42.3395 39.7971 43.5052 40.6441 44.1335C41.3352 44.6398 42.3761 44.6873 43.1482 44.9678C44.236 45.3735 45.2247 46.0021 46.3259 46.4175C47.3774 46.8174 48.4155 47.2077 49.4959 47.4966C50.1008 47.657 51.233 48.2974 51.8355 48.2634C52.3325 48.2349 52.6103 48.2011 52.6952 47.5319C52.8794 46.1735 50.9546 45.3799 50.0361 45.0349C48.3139 44.3968 46.3653 44.3568 44.8732 43.2146C43.6793 42.3069 42.8723 40.9873 42.0852 39.7529C41.0052 38.065 39.8737 36.2792 38.6863 34.6561C37.5733 33.127 36.113 32.3221 35.2294 30.5723C34.8339 29.7813 34.3888 29.2996 33.9614 28.6378C33.4795 27.8964 30.4492 20.0119 29.3846 21.1135C28.5053 22.0135 30.9475 26.3525 31.3385 27.4039C32.2092 29.7224 33.5013 32.019 34.0721 34.4163C34.5348 36.3709 35.6007 37.9372 36.864 39.4829Z" fill="#CCEA86"/>
<g clip-path="url(#clip1_1602_338)">
<path d="M110.42 47.8201C113.34 45.4201 117.27 44.7101 121.01 44.1901C122.29 44.0101 123.61 43.8501 124.86 44.1901C126.85 44.7201 128.54 46.4801 130.6 46.3201C131.17 46.2801 131.77 46.0801 132.3 46.2901C132.99 46.5601 133.28 47.4301 133.14 48.1601C133 48.8901 132.54 49.5101 132.09 50.1001C126.74 57.0801 120.82 64.4601 112.37 66.8901C110.18 67.5201 107.59 67.7701 105.47 66.7601C102.75 65.4701 102.73 63.3801 103.31 60.7301C104.35 55.8701 106.5 51.0501 110.42 47.8201Z" fill="#D5D458"/>
<path opacity="0.62" d="M105.82 66.9101C108.59 66.5301 111.12 65.2201 113.49 63.8101C115.44 62.6501 117.53 61.4501 119.31 60.0501C120.51 59.1101 121.21 57.6901 121.88 56.3201C122.34 55.3801 122.8 54.4401 123.26 53.4901C123.52 52.9601 123.78 52.4201 123.85 51.8301C122.65 52.2701 121.45 52.7101 120.26 53.1501C121.22 52.8001 122.36 51.3501 123.14 50.6701C123.54 50.3301 124.98 49.4801 124.48 48.7401C124.28 48.4401 123.89 48.3401 123.53 48.2901C122.4 48.1201 121.22 48.2401 120.14 48.6301C120.89 47.7601 122.07 47.4001 123.2 47.2001C123.5 47.1501 123.83 47.0901 124.04 46.8601C123.71 46.5601 123.22 46.5101 122.77 46.4901C120.34 46.3801 117.89 46.6401 115.54 47.2501C116.34 46.8501 117.14 46.4601 117.99 46.1901C118.54 46.0201 119.11 45.9001 119.67 45.7801C120.88 45.5301 122.09 45.2801 123.31 45.0301C122.36 44.4701 120.76 44.4901 119.71 44.6801C118.9 44.8301 118 44.6601 117.21 44.8301C118.46 44.5601 119.74 44.3601 121 44.1901C122.28 44.0101 123.6 43.8501 124.85 44.1901C126.84 44.7201 128.53 46.4801 130.59 46.3201C131.16 46.2801 131.76 46.0801 132.29 46.2901C132.98 46.5601 133.27 47.4301 133.13 48.1601C133 48.8901 132.54 49.5101 132.09 50.1001C126.74 57.0801 120.82 64.4601 112.37 66.8901C110.3 67.4801 107.87 67.7301 105.82 66.9101Z" fill="#BFB939"/>
<path opacity="0.62" d="M129.05 50.3601C128.13 48.8201 128.65 47.5301 128.99 46.0801C129.51 46.2601 130.04 46.3601 130.6 46.3201C131.17 46.2801 131.77 46.0801 132.3 46.2901C132.99 46.5601 133.28 47.4301 133.14 48.1601C133 48.8901 132.54 49.5101 132.09 50.1001C131.59 50.7601 131.07 51.4201 130.56 52.0801C130.01 51.5501 129.45 51.0401 129.05 50.3601Z" fill="#FFEC9C"/>
<path opacity="0.68" d="M128.98 50.6101C129 50.5001 129.01 50.3901 129.01 50.2701C130.06 50.7201 131.19 49.8901 131.44 48.8301C131.61 48.1201 131.85 47.3901 131.47 46.7601C131.49 46.6201 131.17 46.3901 131.14 46.2501C131.54 46.1901 131.94 46.1501 132.31 46.2901C133 46.5601 133.29 47.4301 133.15 48.1601C133 48.8901 132.54 49.5101 132.09 50.1001C131.52 50.8401 130.95 51.5901 130.36 52.3301C129.55 51.9101 128.84 51.3201 128.98 50.6101Z" fill="#E8B769"/>
<path opacity="0.44" d="M111.76 49.7602C113.47 48.5802 115.37 47.6502 117.39 47.1802C119.95 46.5802 122.72 46.7402 125.09 47.8802C126.39 48.5002 127.63 49.5602 127.83 50.9802C128.18 53.5402 126.61 55.2402 125.17 57.0502C123.43 59.2502 121.17 61.0102 118.71 62.3602C115.58 64.0702 112.13 65.1302 108.65 65.9302C107.34 66.2302 105.72 66.4002 104.88 65.3402C104.3 64.6102 104.35 63.5702 104.49 62.6502C105.23 57.6802 107.58 52.6502 111.76 49.7602Z" fill="#E5DF6E"/>
<path opacity="0.65" d="M130.37 52.0702C130.4 52.0302 130.42 52.0002 130.45 51.9702C131.06 51.1102 131.96 49.5302 132.17 48.4902C132.4 47.3602 132.23 46.5302 131.34 46.2302C131.67 46.1902 132 46.1702 132.3 46.2902C132.99 46.5602 133.28 47.4302 133.14 48.1602C133 48.8902 132.54 49.5102 132.09 50.1002C131.55 50.8002 131 51.5102 130.45 52.2102C130.42 52.1602 130.4 52.1102 130.37 52.0702Z" fill="#A57329"/>
<path d="M108.87 63.8702C108.71 63.9402 108.55 64.0102 108.39 64.0902C107.62 64.4502 106.44 65.0502 105.58 64.7302C104.57 64.3502 104.96 62.0902 105.14 61.1802C105.67 58.4102 107.45 56.3002 109.24 54.5302C110.17 53.6002 111.33 52.9002 112.61 52.8202C113.14 52.7902 113.68 52.8602 114.21 52.8002C115.32 52.6802 116.3 51.9002 117.42 51.8702C118.1 51.8502 119.06 51.9502 119.72 52.1402C120.27 52.3002 120.81 52.7302 120.98 53.3402C121.16 53.9702 120.92 54.6202 120.66 55.1702C118.92 58.8502 115.83 61.5902 112.24 62.6402C111.04 62.9902 109.98 63.3702 108.87 63.8702Z" fill="#E5DF6E"/>
<path opacity="0.77" d="M105.46 66.7602C104.7 66.4002 104.15 65.9702 103.77 65.4902C104.24 66.0802 106.28 65.7002 106.9 65.6402C108.34 65.4902 109.75 65.1602 111.12 64.7102C116.07 63.0902 122.01 60.3802 124.18 55.3002C123.75 55.5302 123.32 55.7602 122.89 55.9902C123.78 54.4702 124.82 53.0302 126.01 51.7302C126.18 51.5502 126.33 51.2202 126.12 51.0902C126.06 51.0502 125.98 51.0502 125.91 51.0202C125.66 50.9102 125.71 50.5502 125.67 50.2802C125.44 48.7802 118.97 50.3102 118.09 50.9602C119.42 49.9702 120.97 49.2902 122.6 48.9802C123.5 48.8102 124.41 48.7502 125.3 48.5502C125.43 48.5202 125.57 48.4802 125.66 48.3902C125.83 48.2002 125.73 47.8702 125.53 47.7202C125.37 47.6102 123.92 47.1902 123.8 47.2702C124.32 46.9402 124.88 46.6802 125.46 46.5002C125.04 46.4502 124.65 46.2802 124.33 46.0002C125.07 45.9602 125.81 45.8202 126.52 45.6102C125.57 45.0302 124.5 44.6502 123.39 44.4902C122.91 44.4202 122.41 44.5102 121.95 44.4502C121.65 44.4102 121.32 44.1702 121.01 44.2102C122.29 44.0302 123.61 43.8702 124.86 44.2102C126.44 44.6302 127.83 45.8202 129.37 46.2202C128.88 46.9102 128.62 47.7902 128.6 48.6202C128.57 50.0102 129.54 51.5702 131.05 51.4502C125.97 58.0102 120.27 64.6302 112.36 66.9002C110.18 67.5202 107.59 67.7602 105.46 66.7602Z" fill="#B9BC37"/>
<path opacity="0.68" d="M105.46 66.76C105.15 66.61 104.89 66.45 104.65 66.29C110.46 68.43 116.69 65.01 121.15 61.27C122.48 60.16 123.77 58.98 124.95 57.71C126.51 56.03 127.55 54.14 128.77 52.23C127.29 52.15 125.96 53.09 124.78 53.98C125.43 53.01 126.56 52.49 127.38 51.67C127.58 51.47 127.78 51.17 127.66 50.91C127.47 50.5 126.72 50.61 126.6 50.18C126.86 49.96 127.12 49.74 127.38 49.52C127.25 49.37 127.07 49.27 126.88 49.25C127.07 48.7 127.93 48.52 127.95 47.94C127.96 47.56 127.59 47.29 127.23 47.17C126.87 47.05 126.47 46.98 126.22 46.71C126.85 46.6 127.49 46.59 128.12 46.7C127.8 46.65 127.27 45.27 126.84 45.04C127.69 45.49 128.52 45.98 129.39 46.2C128.9 46.89 128.64 47.77 128.62 48.6C128.59 49.99 129.56 51.55 131.07 51.43C125.99 57.99 120.29 64.61 112.38 66.88C110.18 67.52 107.59 67.76 105.46 66.76Z" fill="#A29720"/>
<path opacity="0.75" d="M105.46 66.7601C105.15 66.6101 104.89 66.4501 104.65 66.2901C110.46 68.4301 116.69 65.0101 121.15 61.2701C123.63 59.1901 125.77 57.3801 127.41 54.5501C127.95 53.6301 128.48 52.7101 129.02 51.7901C129.06 51.7201 129.11 51.6401 129.12 51.5501C129.15 51.3401 128.94 51.1501 128.73 51.1101C128.52 51.0701 128.3 51.1401 128.1 51.2101C128.32 51.0601 128.55 50.9001 128.68 50.6701C128.81 50.4401 128.81 50.1101 128.6 49.9401C128.44 49.8101 128.22 49.8101 128.02 49.8101C127.33 49.8201 126.64 49.8201 125.95 49.8301C126.75 49.5001 127.55 49.1701 128.35 48.8401C128.11 48.6101 128.15 48.2201 128.15 47.8901C128.15 47.5501 128 47.1301 127.67 47.1201C127.97 47.0101 128.26 46.9001 128.56 46.7901C128.42 46.4601 128.27 46.1601 128.24 45.8101C128.34 45.8501 129.31 46.2901 129.36 46.2101C128.87 46.9001 128.61 47.7801 128.59 48.6101C128.56 50.0001 129.53 51.5601 131.04 51.4401C125.96 58.0001 120.26 64.6201 112.35 66.8901C110.18 67.5201 107.59 67.7601 105.46 66.7601Z" fill="#8A720B"/>
<path opacity="0.42" d="M130.95 47.7101C131.09 47.7101 131.23 47.7101 131.35 47.7701C131.47 47.8201 131.58 47.9501 131.57 48.0801C131.57 48.1601 131.53 48.2301 131.49 48.2901C131.16 48.8401 130.76 49.3501 130.3 49.7901C130.06 50.0201 129.73 50.2401 129.43 50.1101C129.19 50.0101 129.09 49.7201 129.05 49.4601C129 49.2001 129 48.9201 129 48.6501C129 48.1101 129 47.3101 129.5 46.9401C130.17 46.4501 130.98 46.9001 130.95 47.7101Z" fill="#FFF69E"/>
<path d="M130.35 47.2602C130.46 47.2402 130.62 47.2502 130.64 47.3602C130.66 47.4402 130.58 47.5202 130.59 47.6002C130.6 47.7202 130.78 47.7802 130.79 47.9002C130.8 47.9602 130.75 48.0202 130.71 48.0702C130.42 48.4202 130.11 48.7502 129.78 49.0702C129.62 49.2302 129.38 49.3802 129.2 49.2502C129.12 49.1902 129.08 49.0802 129.06 48.9702C128.89 47.9802 129.41 47.4202 130.35 47.2602Z" fill="#FBEF95"/>
<path opacity="0.34" d="M107.28 54.7301C108.28 53.3101 109.55 52.0501 111.13 51.3201C109.28 53.0501 107.69 55.0501 106.38 57.2101C106.21 57.5001 106.04 57.7801 105.88 58.0701C105.74 58.3301 105.52 58.5401 105.39 58.7901C104.97 59.6201 104.64 60.4901 104.4 61.3901C104.35 61.5801 104.3 61.7701 104.19 61.9201C104.28 61.7901 104.22 61.2401 104.25 61.0601C104.3 60.7301 104.38 60.4001 104.48 60.0801C104.68 59.4901 105.05 59.0001 105.28 58.4401C105.81 57.1501 106.47 55.8901 107.28 54.7301Z" fill="#BFB939"/>
<path opacity="0.34" d="M111.25 48.3502C112.56 47.2202 114.11 46.3102 115.81 45.9802C113.6 47.2102 111.57 48.7502 109.77 50.5302C109.53 50.7702 109.3 51.0002 109.07 51.2502C108.87 51.4602 108.6 51.6102 108.42 51.8202C107.81 52.5202 107.28 53.2902 106.82 54.1002C106.73 54.2702 106.63 54.4402 106.49 54.5602C106.61 54.4602 106.69 53.9102 106.75 53.7402C106.88 53.4302 107.03 53.1302 107.21 52.8502C107.55 52.3302 108.03 51.9502 108.39 51.4502C109.24 50.3302 110.18 49.2702 111.25 48.3502Z" fill="#BFB939"/>
<path opacity="0.34" d="M106.17 59.3402C106.97 58.3202 107.98 57.4202 109.19 56.9202C107.74 58.1502 106.46 59.5802 105.4 61.1502C105.27 61.3502 105.13 61.5602 105 61.7702C104.88 61.9602 104.71 62.1102 104.61 62.2902C104.27 62.8902 103.99 63.5302 103.78 64.1802C103.74 64.3202 103.69 64.4502 103.6 64.5702C103.67 64.4802 103.64 64.0702 103.67 63.9402C103.72 63.7002 103.79 63.4602 103.88 63.2302C104.05 62.8002 104.35 62.4502 104.54 62.0402C104.98 61.0802 105.52 60.1702 106.17 59.3402Z" fill="#BFB939"/>
<path opacity="0.34" d="M119.91 58.3501C119 59.4001 117.88 60.3101 116.56 60.7701C118.18 59.5301 119.62 58.0601 120.84 56.4401C121 56.2301 121.16 56.0101 121.31 55.7901C121.44 55.5901 121.64 55.4401 121.76 55.2601C122.16 54.6301 122.49 53.9601 122.76 53.2701C122.81 53.1301 122.87 52.9801 122.97 52.8601C122.88 52.9601 122.89 53.4001 122.86 53.5401C122.8 53.8001 122.71 54.0501 122.6 54.3001C122.4 54.7601 122.06 55.1101 121.83 55.5501C121.28 56.5401 120.65 57.4901 119.91 58.3501Z" fill="#BFB939"/>
</g>
<g clip-path="url(#clip2_1602_338)">
<path d="M43.1642 72.8356C45.1766 69.9604 47.7186 67.5964 50.7054 67.1066C53.5651 66.6168 56.7849 67.9798 59.3057 69.066C64.5168 71.3873 67.44 72.793 71.719 76.3496C75.0871 79.1608 78.7518 81.8656 81.3361 85.4861C83.5815 88.5742 84.4076 92.4929 87.2885 95.0911C90.8897 98.3283 91.0168 99.0311 86.992 101.693C74.3669 110.127 65.5759 112.64 50.3877 109.999C43.4184 108.764 38.5887 107.444 37.4024 100.139C36.4704 94.367 37.1059 87.1686 38.8641 81.6313C39.7538 79.0117 41.173 75.6681 43.1642 72.8356Z" fill="#FFC40C"/>
<path d="M51.701 82.7388C49.9005 85.976 48.5871 89.6817 48.5871 92.2161C48.5447 97.8386 57.6323 99.2868 61.7841 99.1164C67.4824 98.8821 73.5196 98.3284 79.1754 97.583C77.1419 99.0312 74.9176 100.203 72.5663 101.118C67.5036 103.12 62.2078 104.654 56.912 105.378C51.1714 106.166 43.9692 107.124 40.9824 100.543C38.8641 95.8153 39.3301 91.066 39.669 86.0825C40.0292 81.1629 44.0116 75.9663 47.8669 73.1125C48.8201 72.3884 50.0276 72.0051 51.3833 71.7921C58.3737 70.7698 62.6103 74.7098 67.1858 79.3526C68.7322 80.9499 70.0032 82.8666 71.719 84.2722C73.5619 85.8056 76.4428 87.552 78.7094 89.4901C75.0024 88.4891 71.1259 85.614 67.9696 83.5481C65.3641 81.8444 62.7162 80.0341 59.7506 79.0331C55.5987 77.6062 53.7981 79.0757 51.701 82.7388Z" fill="#FFFA50"/>
<path d="M78.4129 89.2983C80.7854 90.64 84.0264 93.0679 83.0096 95.4958C82.0563 97.732 77.5232 98.9033 75.4684 99.2867C72.291 99.883 69.0923 100.075 65.9149 100.458C63.3305 100.777 61.2334 101.523 58.6067 101.033C53.6499 100.117 49.5192 99.2015 48.8625 93.7494C48.0152 86.8278 53.9464 74.0282 62.8433 77.6061C66.0208 78.884 67.1223 81.4822 69.3465 83.6545C71.5072 85.7842 74.261 87.2537 76.9724 88.5103C77.3537 88.7233 77.8621 88.9788 78.4129 89.2983Z" fill="#FFE62E"/>
<path d="M50.7054 67.1066C53.5651 66.6168 56.7849 67.9798 59.3057 69.066C64.5168 71.3873 67.44 72.793 71.719 76.3496C75.0871 79.1608 78.7518 81.8656 81.3361 85.4861C82.4164 86.9769 83.179 88.6807 84.0052 90.3419C83.3909 89.49 82.7766 88.6594 82.0563 87.9779C79.472 85.4009 76.8453 82.6536 73.7738 80.6729C73.7314 80.6516 73.689 80.6303 73.6678 80.609C68.478 75.9449 61.8689 72.005 56.7849 72.5161C48.227 73.3893 41.8297 82.0146 41.2154 90.3844C40.3045 102.396 49.5827 107.018 60.4284 106.315C69.8337 105.718 82.0351 104.27 89.5551 97.945C89.661 97.9024 89.7246 97.8811 89.8093 97.8385C90.4236 99.095 89.5551 99.9895 86.992 101.693C74.3669 110.127 65.5759 112.64 50.3877 109.999C43.4184 108.764 38.5887 107.444 37.4024 100.139C36.4704 94.367 37.1059 87.1686 38.8641 81.6313C39.7114 79.0117 41.1518 75.6681 43.1219 72.8356C45.1978 69.9604 47.7186 67.5964 50.7054 67.1066Z" fill="#EF9818"/>
<path d="M45.219 83.7823C46.384 80.9924 48.2693 78.5858 50.7266 76.4561C53.1838 74.2838 55.4928 74.5394 52.9508 77.6275C48.8413 82.6749 46.7653 85.4861 46.9772 92.1308C46.9984 93.8559 48.4812 98.4348 47.3373 99.3293C43.9056 97.9237 43.6514 92.5994 43.8844 89.49C44.0327 87.4242 44.4776 85.5287 45.219 83.7823Z" fill="white"/>
<path d="M79.6203 93.4086C79.5779 93.0253 79.4932 92.6419 79.3661 92.365C78.9424 91.4919 77.9045 90.7465 77.1207 90.214C76.4005 89.7242 75.4684 89.4047 75.0659 88.5954C75.9556 88.1269 77.9892 89.5112 78.7094 89.9798C79.7262 90.64 80.7642 91.3854 81.5268 92.365C82.0987 93.0891 82.48 93.941 82.2893 94.8781C82.0987 95.7513 81.5479 96.5393 80.5947 96.0069C79.7897 95.5809 79.7686 94.4096 79.6203 93.4086Z" fill="white"/>
</g>
<defs>
<filter id="filter0_f_1602_338" x="138" y="46" width="76.7069" height="84.8445" filterUnits="userSpaceOnUse" color-interpolation-filters="sRGB">
<feFlood flood-opacity="0" result="BackgroundImageFix"/>
<feBlend mode="normal" in="SourceGraphic" in2="BackgroundImageFix" result="shape"/>
<feGaussianBlur stdDeviation="2" result="effect1_foregroundBlur_1602_338"/>
</filter>
<clipPath id="clip0_1602_338">
<rect width="68.86" height="35.64" fill="white" transform="translate(142 106.389) rotate(-54.9747)"/>
</clipPath>
<clipPath id="clip1_1602_338">
<rect width="30.18" height="23.44" fill="white" transform="translate(103 44.0002)"/>
</clipPath>
<clipPath id="clip2_1602_338">
<rect width="53" height="44" fill="white" transform="translate(36.9999 67.0002)"/>
</clipPath>
</defs>
</svg>
