<svg width="22" height="22" viewBox="0 0 22 22" fill="none" xmlns="http://www.w3.org/2000/svg">
<g clip-path="url(#clip0_1642_31)">
<path d="M19.3868 6.17513C18.1399 4.27207 16.1876 3.07231 14.0929 2.73445C14.1143 2.58965 14.0929 2.43106 14.0145 2.29316C13.8649 2.03114 13.5585 1.88634 13.245 1.9484L8.92013 2.8103L8.32163 1.03134C8.23613 0.776222 8.001 0.590053 7.72313 0.562472C7.44525 0.534892 7.1745 0.6659 7.032 0.900335L5.74238 3.03094C4.866 2.38279 3.79013 1.9415 2.7 1.9415C2.30813 1.9415 1.9875 2.25179 1.9875 2.63102C1.9875 3.01025 2.30813 3.32054 2.7 3.32054C3.5265 3.32054 4.353 3.70667 5.0085 4.2238L0.883129 6.88534C0.619504 7.05082 0.505504 7.368 0.598129 7.65759C0.683629 7.94719 0.961504 8.14715 1.275 8.14715H3.17738L2.00888 12.0981C1.92338 12.4015 2.05163 12.7186 2.3295 12.8772C2.4435 12.9462 2.57175 12.9669 2.7 12.9669C2.71425 15.2216 3.74738 17.4074 5.64975 18.814C8.46413 20.8894 12.561 21.9444 17.8335 21.9444C18.033 21.9444 18.2325 21.9444 18.432 21.9375C20.085 21.9099 21.4886 20.6894 21.6953 19.0967C22.3721 13.8908 21.5955 9.54687 19.3868 6.17513ZM20.2845 18.9243C20.1634 19.8413 19.3654 20.5447 18.4178 20.5584C13.1809 20.6343 9.17663 19.6828 6.519 17.7176C4.65225 16.3386 3.81863 14.0287 4.23188 11.8085L5.25788 10.8501C4.31738 13.1255 4.99425 15.7249 6.95363 17.1729C9.38325 18.9657 13.0455 19.8758 17.8335 19.8758C18.0259 19.8758 18.2183 19.8758 18.4178 19.8689C18.8096 19.862 19.1231 19.5449 19.116 19.1656C19.1089 18.7864 18.7883 18.4899 18.4035 18.4899C18.3964 18.4899 18.3964 18.4899 18.3893 18.4899C13.6511 18.5726 10.0886 17.7452 7.82288 16.0766C6.29813 14.9527 5.82788 12.8496 6.71138 11.0845L8.55675 13.4013C8.685 13.5667 8.89875 13.6633 9.1125 13.6633C9.19088 13.6633 9.26925 13.6495 9.3405 13.6288C9.63263 13.5323 9.825 13.2703 9.825 12.9738V8.06441L14.898 7.45074C15.2186 7.40937 15.4751 7.16804 15.5179 6.85775C15.5606 6.54747 15.3825 6.25098 15.0833 6.12687L12.0765 4.934L12.9885 4.01695C15.0191 4.05142 16.9928 5.0857 18.1826 6.90602C20.2061 10.0088 20.9186 14.0494 20.2845 18.9243ZM5.94188 5.27187C5.95613 5.26497 5.95613 5.25808 5.96325 5.25118C6.15563 5.54767 6.2625 5.83727 6.2625 6.0786C6.2625 6.45784 6.58313 6.76812 6.975 6.76812C7.36688 6.76812 7.6875 6.45784 7.6875 6.0786C7.6875 5.42356 7.3455 4.68578 6.78975 4.01695L7.45238 2.92062L7.75875 3.83078C7.87275 4.16864 8.229 4.36171 8.57813 4.29275L11.2643 3.75493L10.3095 4.71336C10.1456 4.87884 10.0744 5.11328 10.1243 5.33392C10.1741 5.55457 10.3309 5.74074 10.5518 5.83038L12.0195 6.40957L9.01988 6.77501C8.67075 6.81638 8.4 7.11288 8.4 7.45763V10.9466L6.61875 8.70566C6.49763 8.54707 6.30525 8.45054 6.10575 8.43675C6.0915 8.43675 6.07013 8.43675 6.05588 8.43675C5.87063 8.43675 5.6925 8.5057 5.55713 8.62981L4.11788 9.98126L4.809 7.63691C4.87313 7.43695 4.83038 7.2163 4.695 7.04392C4.55963 6.87154 4.34588 6.76812 4.125 6.76812H3.62625L5.94188 5.27187Z" fill="#359740"/>
<path d="M12.1691 10.7055C12.3116 10.8365 12.4897 10.9054 12.675 10.9054C12.8602 10.9054 13.0384 10.8365 13.1809 10.7055C13.4587 10.4365 13.4587 10.0022 13.1809 9.73324L12.4684 9.04372C12.1905 8.77481 11.7416 8.77481 11.4637 9.04372C11.1859 9.31264 11.1859 9.74703 11.4637 10.0159L12.1691 10.7055Z" fill="#359740"/>
<path d="M16.4441 10.016C16.5866 10.147 16.7647 10.216 16.95 10.216C17.1352 10.216 17.3134 10.147 17.4559 10.016C17.7337 9.74709 17.7337 9.3127 17.4559 9.04379L16.7434 8.35427C16.4655 8.08536 16.0166 8.08536 15.7387 8.35427C15.4609 8.62318 15.4609 9.05758 15.7387 9.32649L16.4441 10.016Z" fill="#359740"/>
<path d="M13.1809 14.5531L12.4684 13.8635C12.1905 13.5946 11.7416 13.5946 11.4637 13.8635C11.1859 14.1325 11.1859 14.5669 11.4637 14.8358L12.1762 15.5253C12.3116 15.6632 12.4897 15.7321 12.675 15.7321C12.8602 15.7321 13.0384 15.6632 13.1809 15.5322C13.4587 15.2633 13.4587 14.822 13.1809 14.5531Z" fill="#359740"/>
<path d="M15.0191 13.4635C15.1616 13.5945 15.3397 13.6635 15.525 13.6635C15.7102 13.6635 15.8884 13.5945 16.0309 13.4635C16.3087 13.1946 16.3087 12.7602 16.0309 12.4913L15.3184 11.8018C15.0405 11.5329 14.5916 11.5329 14.3137 11.8018C14.0359 12.0707 14.0359 12.5051 14.3137 12.774L15.0191 13.4635Z" fill="#359740"/>
<path d="M17.8691 13.4635L18.5816 14.153C18.7241 14.284 18.9023 14.3529 19.0875 14.3529C19.2728 14.3529 19.4509 14.284 19.5934 14.153C19.8713 13.8841 19.8713 13.4497 19.5934 13.1807L18.8809 12.4912C18.603 12.2223 18.1541 12.2223 17.8763 12.4912C17.5913 12.7532 17.5913 13.1945 17.8691 13.4635Z" fill="#359740"/>
<path d="M16.7434 15.2425C16.4655 14.9735 16.0166 14.9735 15.7387 15.2425C15.4609 15.5114 15.4609 15.9458 15.7387 16.2147L16.4512 16.9042C16.5866 17.0421 16.7647 17.111 16.95 17.111C17.1352 17.111 17.3134 17.0421 17.4559 16.9111C17.7337 16.6422 17.7337 16.2078 17.4559 15.9389L16.7434 15.2425Z" fill="#359740"/>
</g>
<defs>
<clipPath id="clip0_1642_31">
<rect width="21.375" height="21.375" fill="white" transform="translate(0.5625 0.5625)"/>
</clipPath>
</defs>
</svg>
