<svg width="21" height="22" viewBox="0 0 21 22" fill="none" xmlns="http://www.w3.org/2000/svg">
<path d="M5.0071 8.24465C4.42376 8.59236 3.81332 8.8006 3.16384 8.87025C2.72626 8.91942 2.31006 8.8687 1.96197 8.7338C1.3913 8.50747 0.96788 8.09999 0.707259 7.52699C0.647116 7.39476 0.642973 7.2416 0.702072 7.10054C0.944038 6.51432 1.3524 6.10283 1.92169 5.85687C2.26326 5.7093 2.68344 5.65182 3.11987 5.68426C4.02204 5.75657 4.84824 6.09827 5.64342 6.70125L6.07446 6.69332C6.16449 6.32218 6.35989 5.98159 6.63399 5.69993L6.40948 5.32329C5.4742 4.96568 4.74942 4.43903 4.22055 3.70844C3.9593 3.3537 3.79442 2.97264 3.74047 2.60016C3.64962 1.98822 3.79248 1.42372 4.15987 0.91215C4.24458 0.793178 4.37778 0.713779 4.52273 0.695857C5.14748 0.616047 5.71197 0.758908 6.20703 1.12991C6.50901 1.35455 6.76576 1.68085 6.95352 2.0794C7.33999 2.89486 7.45847 3.78292 7.32813 4.77571L7.55263 5.15236C7.92803 5.04065 8.3233 5.03537 8.69259 5.13273L8.9046 4.75735C8.74974 3.76648 8.84218 2.8772 9.20588 2.05657C9.3822 1.65266 9.63078 1.31773 9.92766 1.08474C10.4102 0.703723 10.971 0.537525 11.6018 0.603544C11.7466 0.616802 11.8794 0.693302 11.9744 0.81096C12.359 1.31004 12.5161 1.87632 12.4391 2.48869C12.3922 2.85904 12.2388 3.24927 11.9874 3.61078C11.6172 4.14894 11.1436 4.58684 10.5603 4.93455C10.3352 5.0687 10.0919 5.18263 9.83846 5.29011L9.62645 5.66549C9.76088 5.79702 9.88886 5.93862 9.99016 6.10857C10.0915 6.27852 10.1551 6.45844 10.2069 6.63925L10.6453 6.63318C11.4211 6.00266 12.2383 5.64004 13.1401 5.54452C13.5776 5.49535 13.9938 5.54607 14.3419 5.68097C14.9126 5.9073 15.336 6.31478 15.5966 6.88778C15.6568 7.02001 15.6563 7.17591 15.6018 7.31423C15.4023 7.79419 15.0913 8.16011 14.6733 8.40926C14.5815 8.46402 14.4869 8.51418 14.3868 8.55516C14.0452 8.70274 13.6296 8.75747 13.1886 8.72777C12.2864 8.65546 11.4602 8.31376 10.6697 7.70805L10.2386 7.71597C10.1504 8.07979 9.95504 8.42037 9.68553 8.69929C9.76493 8.8325 9.84892 8.96296 9.92832 9.09616C10.8471 9.45739 11.5618 9.9776 12.0898 10.6963C12.351 11.051 12.5159 11.4321 12.5699 11.8045C12.6266 12.1816 12.5833 12.5373 12.4622 12.8772C12.8577 13.4258 13.256 13.9479 13.6453 14.4442C13.6904 14.05 13.8062 13.6697 14.0044 13.3026C14.4304 12.5133 15.1528 11.9395 16.0863 11.657C16.8132 11.4353 17.5727 11.3935 18.3289 11.5342C18.5186 11.5705 18.6796 11.7048 18.7414 11.8921C18.8032 12.0794 18.7559 12.2819 18.6225 12.4236C18.249 12.8206 17.7747 13.5391 17.669 14.2495C17.5044 15.3623 16.8908 16.0144 16.2064 16.4224C15.9997 16.5456 15.7931 16.6376 15.5838 16.725C17.2714 18.5328 18.8233 19.7369 20.125 20.2184C20.4035 20.3201 20.5438 20.6286 20.4421 20.9071C20.3959 21.028 20.3141 21.1204 20.213 21.1807C20.0798 21.2601 19.911 21.2797 19.7534 21.2243C18.8163 20.874 17.8543 20.2522 16.9092 19.4709L16.8311 19.5174C16.4478 19.8455 16.0148 20.1845 15.5372 20.4692C14.6369 21.0059 13.5647 21.3586 12.3256 21.1074C11.4421 20.9306 10.2556 21.1647 9.50934 21.4165C9.30371 21.4893 9.0783 21.4245 8.93937 21.2645C8.80044 21.1045 8.76627 20.8697 8.86221 20.6755C9.27272 19.8394 9.86368 19.0763 10.6203 18.4136C11.5682 17.5809 12.6482 17.0742 13.7417 16.9453C13.9343 16.9238 14.1205 16.9125 14.3076 16.913C14.2893 16.8928 14.2683 16.868 14.25 16.8477C13.3368 15.8171 12.4917 14.7334 11.7472 13.7142C11.1363 13.7858 10.5837 13.6421 10.106 13.2794C9.80407 13.0547 9.54732 12.7284 9.35956 12.3299C8.97309 11.5144 8.85461 10.6264 8.98036 9.63632L8.75585 9.25967C8.38045 9.37139 7.98518 9.37666 7.61589 9.2793L7.40388 9.65468C7.55875 10.6456 7.4663 11.5348 7.10261 12.3555C6.92628 12.7594 6.6777 13.0943 6.38082 13.3273C6.29717 13.3958 6.20804 13.4552 6.11618 13.5099C5.6982 13.7591 5.22378 13.8613 4.71131 13.8057C4.56371 13.7879 4.4337 13.716 4.33867 13.5983C3.95403 13.0993 3.79702 12.533 3.87399 11.9206C3.92091 11.5503 4.07427 11.16 4.32567 10.7985C4.84138 10.0554 5.54909 9.509 6.47002 9.12192L6.68389 8.73921C6.54946 8.60768 6.42148 8.46608 6.32018 8.29613C6.21888 8.12619 6.15521 7.94626 6.10346 7.76545L5.67242 7.77337C5.44814 7.95063 5.23217 8.11049 5.0071 8.24465ZM3.03333 6.75055C2.76561 6.7296 2.52801 6.75918 2.33978 6.84025C2.10473 6.93678 1.93098 7.08392 1.80015 7.29263C1.93528 7.49844 2.11829 7.63837 2.35553 7.73351C2.54331 7.80833 2.78259 7.83379 3.05137 7.8043C3.59627 7.74719 4.0911 7.56429 4.57436 7.25756C4.07727 6.95624 3.5761 6.79431 3.03333 6.75055ZM11.0987 3.00753C11.2525 2.78513 11.3439 2.56255 11.3674 2.36178C11.3993 2.11244 11.356 1.88305 11.2438 1.66354C10.998 1.67934 10.7859 1.76218 10.5892 1.92301C10.4329 2.04728 10.2893 2.24495 10.1804 2.4904C9.96067 2.98865 9.86471 3.50651 9.89056 4.0825C10.3976 3.80518 10.7911 3.45233 11.0987 3.00753ZM13.2632 7.66236C13.5309 7.68331 13.7686 7.65374 13.9568 7.57266C14.1891 7.47154 14.3674 7.32166 14.4964 7.12028C14.3613 6.91447 14.1783 6.77455 13.9438 6.684C13.756 6.60917 13.5167 6.58372 13.2479 6.61321C12.703 6.67032 12.2128 6.85048 11.7249 7.15995C12.2193 7.45667 12.7205 7.61861 13.2632 7.66236ZM16.6121 14.0951C16.6953 13.535 16.9307 12.9901 17.2108 12.5305C16.9366 12.5508 16.6668 12.5996 16.3924 12.6822C15.9353 12.824 15.3034 13.1321 14.9365 13.8115C14.7217 14.2135 14.5043 14.841 14.9233 15.8363C15.9991 15.4689 16.4802 14.9705 16.6121 14.0951ZM5.19787 11.4054C5.04408 11.6278 4.95265 11.8504 4.92914 12.0511C4.89998 12.3051 4.936 12.5326 5.05276 12.7494C5.29858 12.7336 5.51066 12.6507 5.70737 12.4899C5.86363 12.3656 6.00726 12.168 6.11619 11.9225C6.33589 11.4243 6.43185 10.9064 6.406 10.3304C5.89898 10.6077 5.50546 10.9606 5.19787 11.4054ZM5.56351 1.99284C5.36036 1.84002 5.146 1.76237 4.89841 1.75431C4.79232 1.97318 4.75865 2.19868 4.79185 2.4528C4.82337 2.6519 4.92361 2.87228 5.07887 3.09099C5.40407 3.53212 5.80108 3.87441 6.31204 4.13634C6.32197 3.5577 6.21433 3.04292 5.97914 2.55436C5.86981 2.30828 5.72364 2.11527 5.56351 1.99284ZM13.8633 18.0058C12.9863 18.1114 12.1038 18.5317 11.3177 19.2181C11.0116 19.4877 10.7375 19.7694 10.4963 20.075C11.1716 19.9651 11.9007 19.9351 12.5359 20.0607C13.6678 20.2887 14.73 19.8983 16.0749 18.7605C15.5027 18.1242 14.8045 17.8929 13.8633 18.0058ZM10.7331 12.4201C10.9362 12.5729 11.1506 12.6505 11.3981 12.6586C11.5042 12.4397 11.5425 12.2115 11.5047 11.9601C11.4732 11.761 11.373 11.5406 11.2177 11.3219C10.8925 10.8808 10.4955 10.5385 9.98452 10.2766C9.97459 10.8552 10.0822 11.37 10.3174 11.8586C10.4268 12.1046 10.5729 12.2976 10.7331 12.4201ZM8.69586 8.1251C9.20111 7.82393 9.36809 7.16413 9.06692 6.65888C8.76576 6.15363 8.10596 5.98665 7.6007 6.28781C7.09545 6.58898 6.92847 7.24878 7.22964 7.75403C7.5308 8.25929 8.1906 8.42627 8.69586 8.1251Z" fill="#359740"/>
</svg>
